<?xml version="1.0" encoding="UTF-8"?>
<svg width="64" height="64" viewBox="0 0 128 128" fill="none" xmlns="http://www.w3.org/2000/svg">
  <defs>
    <linearGradient id="gg" x1="0" y1="0" x2="1" y2="1">
      <stop offset="0%" stop-color="#FF6EA7"/>
      <stop offset="50%" stop-color="#FF93B6"/>
      <stop offset="100%" stop-color="#9B8CFF"/>
    </linearGradient>
    <linearGradient id="gg2" x1="0" y1="0" x2="1" y2="1">
      <stop offset="0%" stop-color="#FFB3CA"/>
      <stop offset="100%" stop-color="#C4B8FF"/>
    </linearGradient>
  </defs>
  <path d="M28 64c10-20 32-20 44 0 12 20 34 20 44 0" stroke="url(#gg)" stroke-width="12" stroke-linecap="round" fill="none"/>
  <path d="M116 64c-10 20-32 20-44 0-12-20-34-20-44 0" stroke="url(#gg2)" stroke-width="12" stroke-linecap="round" fill="none" opacity="0.9"/>
  <path d="M64 42c-5-9-20-9-25 1-3 6-2 14 3 19 7 7 22 18 22 18s15-11 22-18c5-5 6-13 3-19-5-10-20-10-25-1z" fill="url(#gg)"/>
</svg>
